<svg width="584" height="166" viewBox="0 0 584 166" fill="none" xmlns="http://www.w3.org/2000/svg">
<path d="M111 88.5C108.6 103.9 94.1 114.5 78.7 112C74.3 111.3 70.1 111.2 66.5 108.5L67 165H99V121.5L130 152.5L152 130L123.2 100.6L111 88.5Z" fill="#00D1FF"/>
<path d="M103.5 63.0001C107.7 67.2001 110.1 72.1001 111 78.0001L122.5 66.0001L152.5 36.0001L130 13.5001L99.0005 44.5001V0.500126L67.0005 0.5L66.4004 59.5001C77.7004 51.4001 93.6005 53.2001 103.5 63.0001Z" fill="#00D1FF"/>
<path d="M111 87.5C108.5 102.9 94 113.5 78.5 111C63.1 108.5 52.5 94 55 78.5C56 72.6 58.8 67.1 62.9 62.9C64 61.8 65.1 60.9 66.3 60C78.9 50.8 96.6 53.6 105.8 66.2C108.4 69.8 110.2 74 110.9 78.5L123 66.4L153.4 36L130 12.6L99.6 42.9V0H66.4V42.9L36.1 12.6L12.6 36.1L43 66.5H0V99.7003H42.9L12.6 130L36.1 153.5L66.5 123.1V166H99.7V123.1L130.1 153.5L153.6 130L123.2 99.6L111 87.5ZM104.2 47.4L130.1 21.5L144.6 36L118.7 62L113.8 66.9C112.1 63.8 110.1 61 107.6 58.5C105.1 56 102.3 53.9 99.3 52.3L104.2 47.4ZM93.3 6.4V50C86.6 48 79.5 48 72.8 50V6.3C72.8 6.3 93.3 6.3 93.3 6.4ZM21.6 36.1L36.1 21.6L60.1 45.6V57C59.5 57.5 59 58 58.5 58.5C56 61 53.9 63.8 52.3 66.9L47.4 62L21.6 36.1ZM6.4 93.3V72.8H50C48 79.5 48 86.6 50 93.3C49.9 93.3 6.3 93.3 6.4 93.3ZM60.1 120.5L36 144.5L21.5 130L47.4 104.2L52.3 99.3C54 102.4 56 105.2 58.5 107.6C59 108.1 59.5 108.6 60.1 109.1V120.5ZM93.3 123.1V159.7H72.7V116.1C79.4 118.1 86.5 118.1 93.2 116.1L93.3 123.1ZM130 144.5L104.2 118.6L99.3 113.7C105.5 110.4 110.5 105.4 113.8 99.2L118.7 104.1L144.6 130L130 144.5Z" fill="black"/>
<path d="M166.4 55.5C166.4 43.7 173.6 36 184.3 36C195 36 202.2 43.8 202.2 55.5C202.2 67.2 195 75 184.3 75C173.6 74.9 166.4 67.2 166.4 55.5ZM195.4 55.5C195.4 47.4 191.1 42.3 184.2 42.3C177.3 42.3 173 47.3 173 55.5C173 63.6 177.3 68.6 184.2 68.6C191.1 68.6 195.4 63.5 195.4 55.5Z" fill="black"/>
<path d="M234.4 60.8996C234.4 69.4996 229.7 74.5996 223.2 74.5996C220.2 74.5996 217.2 73.3996 215.6 71.3996V84.9996H209.2V47.6996H215.6V50.2996C217.4 47.9996 220.4 47.0996 223.2 47.0996C230.5 47.0996 234.4 52.9996 234.4 60.8996ZM228 60.8996C228 55.6996 226 52.7996 221.7 52.7996C217 52.7996 215 56.1996 215 60.8996C215 65.4996 217 69.0996 221.6 69.0996C225.9 68.9996 228 65.9996 228 60.8996Z" fill="black"/>
<path d="M263.5 63.0002H245.4C245.7 66.5002 247.8 68.8002 252 68.8002C254.4 68.8002 256.5 68.0002 258.3 66.0002L262.8 69.9002C259.9 73.1002 256.4 74.7002 252 74.7002C242.9 74.7002 239 68.1002 239 61.1002C239 54.2002 242.8 47.2002 251.6 47.2002C259.8 47.2002 263.8 53.3002 263.8 60.6002C263.6 61.4002 263.6 62.2002 263.5 63.0002ZM257.4 57.9002C257.3 54.5002 254.7 52.5002 251.3 52.5002C247.4 52.5002 245.6 55.3002 245.2 57.9002H257.4Z" fill="black"/>
<path d="M294.8 57.1002V74.2002H288.4V58.7002C288.4 56.9002 288.4 52.8002 283.5 52.8002C277.5 52.8002 277.5 58.9002 277.5 63.6002V74.2002H271V47.7002H277.4V50.8002C279.3 48.3002 282.2 47.2002 285.4 47.2002C291.4 47.1002 294.8 50.8002 294.8 57.1002Z" fill="black"/>
<path d="M343.1 74.1002L332 55.5002L324.9 62.7002V74.1002H318.2V36.7002H324.9V54.3002L341.7 36.7002H350.5L336.6 50.9002L350.9 74.2002L343.1 74.1002Z" fill="black"/>
<path d="M379.301 57.1002V74.2002H372.901V58.7002C372.901 56.9002 372.901 52.8002 368.001 52.8002C362.001 52.8002 362.001 58.9002 362.001 63.6002V74.2002H355.601V47.7002H362.001V50.8002C363.901 48.3002 366.801 47.2002 370.001 47.2002C375.901 47.1002 379.301 50.8002 379.301 57.1002Z" fill="black"/>
<path d="M381.9 60.9002C381.9 53.4002 386.9 47.2002 395.2 47.2002C403.4 47.2002 408.5 53.4002 408.5 60.9002C408.5 68.4002 403.4 74.7002 395.2 74.7002C387 74.7002 381.9 68.3002 381.9 60.9002ZM402 60.9002C402 56.6002 400.1 52.8002 395.2 52.8002C390.3 52.8002 388.4 56.6002 388.4 60.9002C388.4 65.2002 390.3 69.1002 395.2 69.1002C400.1 69.1002 402 65.2002 402 60.9002Z" fill="black"/>
<path d="M411.301 47.7002H418.201L422.701 64.3002L427.701 47.7002H433.201L438.201 64.2002L442.801 47.7002H449.701L441.501 74.2002H435.701L430.501 56.9002L425.301 74.2002H419.501L411.301 47.7002Z" fill="black"/>
<path d="M455.7 67.8002V36.7002H462.1V67.4002C462.1 68.6002 462.8 69.1002 464 69.1002C464.6 69.1002 465.3 69.0002 466 68.8002V74.0002C464.6 74.5002 463.1 74.8002 461.9 74.8002C458.3 74.7002 455.7 72.5002 455.7 67.8002Z" fill="black"/>
<path d="M493.7 63.0002H475.6C475.9 66.5002 478 68.8002 482.2 68.8002C484.6 68.8002 486.7 68.0002 488.5 66.0002L493 69.9002C490.1 73.1002 486.6 74.7002 482.2 74.7002C473.1 74.7002 469.2 68.1002 469.2 61.1002C469.2 54.2002 473 47.2002 481.8 47.2002C490 47.2002 494 53.3002 494 60.6002C493.9 61.4002 493.8 62.2002 493.7 63.0002ZM487.7 57.9002C487.6 54.5002 485 52.5002 481.6 52.5002C477.7 52.5002 475.9 55.3002 475.5 57.9002H487.7Z" fill="black"/>
<path d="M524.301 36.7002V74.1002H517.901V71.5002C516.101 73.8002 513.101 74.7002 510.301 74.7002C503.101 74.7002 499.101 68.8002 499.101 60.9002C499.101 52.3002 503.801 47.2002 510.301 47.2002C513.301 47.2002 516.301 48.4002 517.901 50.4002V36.7002H524.301ZM518.501 60.9002C518.501 56.5002 516.501 53.0002 511.901 53.0002C507.601 53.0002 505.601 56.0002 505.601 60.9002C505.601 65.8002 507.601 68.7002 511.901 68.7002C516.501 68.7002 518.501 65.3002 518.501 60.9002Z" fill="black"/>
<path d="M555.6 77.7004C555.6 83.2004 550.6 85.6004 543.4 85.6004C535.5 85.6004 531 82.7004 531 77.2004C531 76.6004 531.1 76.3004 531.1 76.0004L534.9 73.6004C533 72.6004 531.7 70.9004 531.7 68.2004C531.7 65.9004 532.6 64.2004 534.2 62.9004C532.9 61.2004 532.1 59.1004 532.1 56.8004C532.1 51.1004 537 47.1004 542.9 47.1004C545.2 47.1004 547.4 47.7004 549.1 48.8004L553.1 45.4004L556.5 49.5004L552.7 52.6004C553.4 53.9004 553.8 55.5004 553.8 57.2004C553.8 63.1004 548.9 66.9004 543.1 66.9004C541.3 66.9004 539.6 66.5004 538 65.9004C537.5 66.2004 537.2 66.7004 537.2 67.3004C537.2 69.2004 539.9 69.8004 543.2 70.2004C548.6 70.8004 555.6 71.4004 555.6 77.7004ZM549.1 78.3004C549.1 76.3004 545.7 76.0004 541.9 75.5004L539.7 75.2004L537.4 77.4004C537.3 77.6004 537.3 77.7004 537.3 77.8004C537.3 80.1004 540.6 80.8004 543.6 80.8004C546.4 80.8004 549.1 80.2004 549.1 78.3004ZM538.5 57.0004C538.5 59.5004 540 61.6004 543 61.6004C546 61.6004 547.4 59.6004 547.4 57.0004C547.4 54.3004 545.7 52.5004 543 52.5004C540.3 52.5004 538.5 54.3004 538.5 57.0004Z" fill="black"/>
<path d="M583.4 63.0002H565.3C565.6 66.5002 567.7 68.8002 571.9 68.8002C574.3 68.8002 576.4 68.0002 578.2 66.0002L582.7 69.9002C579.8 73.1002 576.3 74.7002 571.9 74.7002C562.8 74.7002 558.9 68.1002 558.9 61.1002C558.9 54.2002 562.7 47.2002 571.5 47.2002C579.7 47.2002 583.7 53.3002 583.7 60.6002C583.6 61.4002 583.5 62.2002 583.4 63.0002ZM577.4 57.9002C577.3 54.5002 574.7 52.5002 571.3 52.5002C567.4 52.5002 565.6 55.3002 565.2 57.9002H577.4Z" fill="black"/>
<path d="M497.409 125.96C496.042 125.96 495.037 125.591 494.395 124.853C493.766 124.101 493.451 122.938 493.451 121.366V96.6338H496.938V120.443C496.938 121.209 497.081 121.797 497.368 122.207C497.655 122.617 498.188 122.822 498.968 122.822C499.392 122.822 499.918 122.768 500.547 122.658L500.567 125.591C499.433 125.837 498.38 125.96 497.409 125.96Z" fill="black"/>
<path d="M478.87 104.775C480.634 104.775 482.145 105.117 483.402 105.801C484.674 106.471 485.638 107.435 486.294 108.692C486.95 109.95 487.278 111.427 487.278 113.122V125.611H484.387L484.161 121.961C483.464 123.246 482.473 124.237 481.188 124.935C479.902 125.618 478.528 125.96 477.065 125.96C475.671 125.96 474.427 125.707 473.333 125.201C472.253 124.682 471.405 123.943 470.79 122.986C470.175 122.016 469.867 120.867 469.867 119.541C469.867 117.504 470.605 116.021 472.082 115.091C473.572 114.147 475.65 113.676 478.316 113.676H484.12C484.106 112.309 483.936 111.201 483.607 110.354C483.279 109.492 482.732 108.856 481.967 108.446C481.215 108.022 480.196 107.811 478.911 107.811C476.573 107.811 474.714 108.877 473.333 111.01L470.667 109.082C471.706 107.66 472.882 106.587 474.194 105.862C475.507 105.138 477.065 104.775 478.87 104.775ZM477.742 122.986C479.41 122.986 480.798 122.487 481.905 121.489C483.026 120.478 483.765 119.165 484.12 117.552V116.219H478.521C476.84 116.219 475.568 116.526 474.707 117.142C473.859 117.757 473.436 118.598 473.436 119.664C473.436 120.676 473.812 121.482 474.563 122.084C475.315 122.686 476.375 122.986 477.742 122.986Z" fill="black"/>
<path d="M447.35 105.124H450.938V108.815C451.595 107.544 452.531 106.553 453.748 105.842C454.979 105.131 456.325 104.775 457.788 104.775C459.579 104.775 461.131 105.254 462.443 106.211C463.756 107.154 464.754 108.433 465.438 110.046C466.135 111.646 466.483 113.423 466.483 115.378C466.483 117.333 466.135 119.117 465.438 120.73C464.754 122.33 463.749 123.602 462.423 124.545C461.11 125.488 459.545 125.96 457.727 125.96C456.264 125.96 454.931 125.611 453.728 124.914C452.524 124.203 451.595 123.205 450.938 121.92V134.102H447.35V105.124ZM456.947 122.802C458.246 122.802 459.347 122.48 460.249 121.838C461.165 121.182 461.849 120.293 462.3 119.172C462.765 118.051 462.997 116.786 462.997 115.378C462.997 113.97 462.765 112.712 462.3 111.604C461.849 110.483 461.165 109.602 460.249 108.959C459.347 108.316 458.246 107.995 456.947 107.995C455.648 107.995 454.521 108.316 453.563 108.959C452.606 109.588 451.875 110.463 451.369 111.584C450.877 112.691 450.631 113.956 450.631 115.378C450.631 116.786 450.884 118.058 451.39 119.192C451.896 120.313 452.62 121.195 453.563 121.838C454.521 122.48 455.648 122.802 456.947 122.802Z" fill="black"/>
<path d="M433.445 125.96C431.354 125.96 429.569 125.495 428.093 124.565C426.616 123.636 425.502 122.378 424.75 120.792C423.998 119.192 423.622 117.415 423.622 115.46C423.622 113.532 423.984 111.755 424.709 110.128C425.434 108.501 426.507 107.202 427.929 106.231C429.364 105.261 431.087 104.775 433.097 104.775C435.243 104.775 436.993 105.268 438.347 106.252C439.714 107.236 440.698 108.474 441.3 109.964C441.901 111.44 442.202 112.958 442.202 114.517C442.202 114.886 442.182 115.255 442.141 115.624C442.113 115.979 442.079 116.239 442.038 116.403H427.293C427.43 118.413 428.018 119.985 429.057 121.12C430.109 122.241 431.579 122.802 433.466 122.802C434.614 122.802 435.633 122.617 436.521 122.248C437.41 121.865 438.271 121.229 439.105 120.341L441.525 122.453C440.391 123.67 439.174 124.559 437.875 125.119C436.59 125.68 435.113 125.96 433.445 125.96ZM438.757 113.86C438.757 113.272 438.729 112.842 438.675 112.568C438.552 111.68 438.258 110.873 437.793 110.148C437.342 109.41 436.713 108.822 435.906 108.385C435.113 107.934 434.17 107.708 433.076 107.708C431.395 107.708 430.062 108.269 429.077 109.39C428.093 110.497 427.498 111.987 427.293 113.86H438.757Z" fill="black"/>
<path d="M417.634 96.6338V125.611H413.901L400.264 102.499V125.611H396.777V96.6338H400.469L414.147 119.685V96.6338H417.634Z" fill="black"/>
<path d="M362.037 105.124H365.503V108.241C366.187 107.106 367.082 106.245 368.189 105.657C369.297 105.069 370.493 104.775 371.778 104.775C373.378 104.775 374.711 105.138 375.777 105.862C376.857 106.573 377.657 107.537 378.177 108.754C378.71 109.971 378.99 111.338 379.018 112.855V125.611H375.552V113.491C375.552 111.769 375.148 110.422 374.342 109.451C373.535 108.48 372.366 107.995 370.835 107.995C369.167 107.995 367.861 108.494 366.918 109.492C365.975 110.477 365.503 111.912 365.503 113.799V125.611H362.037V105.124Z" fill="black"/>
<path d="M346.82 125.96C344.865 125.96 343.122 125.488 341.591 124.545C340.06 123.588 338.863 122.303 338.002 120.689C337.154 119.062 336.73 117.271 336.73 115.316C336.73 113.375 337.154 111.604 338.002 110.005C338.863 108.392 340.06 107.12 341.591 106.19C343.122 105.247 344.865 104.775 346.82 104.775C348.775 104.775 350.519 105.247 352.05 106.19C353.595 107.12 354.798 108.392 355.659 110.005C356.521 111.618 356.951 113.389 356.951 115.316C356.951 117.271 356.521 119.062 355.659 120.689C354.798 122.303 353.595 123.588 352.05 124.545C350.519 125.488 348.775 125.96 346.82 125.96ZM346.82 122.945C348.188 122.945 349.363 122.604 350.348 121.92C351.332 121.236 352.077 120.32 352.583 119.172C353.089 118.01 353.342 116.725 353.342 115.316C353.342 113.922 353.089 112.657 352.583 111.522C352.077 110.374 351.332 109.465 350.348 108.795C349.363 108.125 348.188 107.79 346.82 107.79C345.467 107.79 344.298 108.125 343.313 108.795C342.343 109.451 341.604 110.354 341.099 111.502C340.593 112.637 340.34 113.908 340.34 115.316C340.34 116.725 340.593 118.01 341.099 119.172C341.604 120.334 342.343 121.257 343.313 121.94C344.298 122.61 345.467 122.945 346.82 122.945Z" fill="black"/>
<path d="M328.158 96.6338H331.788V100.981H328.158V96.6338ZM328.24 105.124H331.706V125.611H328.24V105.124Z" fill="black"/>
<path d="M319.955 125.96C318.082 125.96 316.64 125.434 315.628 124.381C314.616 123.314 314.11 121.817 314.11 119.89V108.057H310.727V105.124H314.151V99.4639L317.576 96.9619V105.124H323.113V108.057H317.576V119.315C317.576 120.573 317.822 121.482 318.314 122.043C318.82 122.604 319.565 122.884 320.55 122.884C320.987 122.884 321.432 122.829 321.883 122.72C322.348 122.597 322.751 122.46 323.093 122.31L323.113 125.468C322.758 125.604 322.293 125.721 321.719 125.816C321.145 125.912 320.557 125.96 319.955 125.96Z" fill="black"/>
<path d="M298.771 104.775C300.534 104.775 302.045 105.117 303.303 105.801C304.574 106.471 305.538 107.435 306.194 108.692C306.851 109.95 307.179 111.427 307.179 113.122V125.611H304.287L304.062 121.961C303.364 123.246 302.373 124.237 301.088 124.935C299.803 125.618 298.429 125.96 296.966 125.96C295.571 125.96 294.327 125.707 293.233 125.201C292.153 124.682 291.306 123.943 290.69 122.986C290.075 122.016 289.768 120.867 289.768 119.541C289.768 117.504 290.506 116.021 291.982 115.091C293.473 114.147 295.551 113.676 298.217 113.676H304.021C304.007 112.309 303.836 111.201 303.508 110.354C303.18 109.492 302.633 108.856 301.867 108.446C301.115 108.022 300.097 107.811 298.812 107.811C296.474 107.811 294.614 108.877 293.233 111.01L290.567 109.082C291.606 107.66 292.782 106.587 294.095 105.862C295.407 105.138 296.966 104.775 298.771 104.775ZM297.643 122.986C299.311 122.986 300.698 122.487 301.806 121.489C302.927 120.478 303.665 119.165 304.021 117.552V116.219H298.422C296.74 116.219 295.469 116.526 294.607 117.142C293.76 117.757 293.336 118.598 293.336 119.664C293.336 120.676 293.712 121.482 294.464 122.084C295.216 122.686 296.275 122.986 297.643 122.986Z" fill="black"/>
<path d="M274.489 125.96C272.671 125.96 271.078 125.488 269.711 124.545C268.344 123.588 267.291 122.303 266.553 120.689C265.814 119.076 265.445 117.299 265.445 115.357C265.445 113.43 265.808 111.659 266.532 110.046C267.271 108.433 268.316 107.154 269.67 106.211C271.037 105.254 272.623 104.775 274.428 104.775C275.891 104.775 277.23 105.131 278.447 105.842C279.678 106.553 280.621 107.544 281.277 108.815V96.6338H284.805V125.611H281.564L281.421 121.735C280.765 123.075 279.814 124.114 278.57 124.853C277.34 125.591 275.979 125.96 274.489 125.96ZM275.31 122.802C276.608 122.802 277.729 122.48 278.673 121.838C279.616 121.195 280.334 120.313 280.826 119.192C281.318 118.058 281.564 116.779 281.564 115.357C281.564 113.949 281.318 112.685 280.826 111.563C280.334 110.429 279.616 109.54 278.673 108.897C277.729 108.255 276.608 107.934 275.31 107.934C274.011 107.934 272.883 108.262 271.926 108.918C270.969 109.561 270.237 110.449 269.731 111.584C269.226 112.705 268.973 113.963 268.973 115.357C268.973 116.766 269.226 118.037 269.731 119.172C270.237 120.293 270.969 121.182 271.926 121.838C272.883 122.48 274.011 122.802 275.31 122.802Z" fill="black"/>
<path d="M243.789 105.124H247.255V108.241C247.938 107.106 248.834 106.245 249.941 105.657C251.049 105.069 252.245 104.775 253.53 104.775C255.13 104.775 256.463 105.138 257.529 105.862C258.609 106.573 259.409 107.537 259.929 108.754C260.462 109.971 260.742 111.338 260.77 112.855V125.611H257.304V113.491C257.304 111.769 256.9 110.422 256.094 109.451C255.287 108.48 254.118 107.995 252.587 107.995C250.919 107.995 249.613 108.494 248.67 109.492C247.727 110.477 247.255 111.912 247.255 113.799V125.611H243.789V105.124Z" fill="black"/>
<path d="M227.157 125.96C225.558 125.96 224.218 125.604 223.138 124.894C222.071 124.169 221.278 123.198 220.759 121.981C220.239 120.751 219.966 119.377 219.938 117.859V105.124H223.384V117.244C223.384 118.967 223.787 120.313 224.594 121.284C225.4 122.255 226.569 122.74 228.101 122.74C229.769 122.74 231.074 122.248 232.018 121.264C232.975 120.266 233.453 118.823 233.453 116.937V105.124H236.898V125.611H233.453V122.494C232.783 123.629 231.888 124.49 230.767 125.078C229.646 125.666 228.442 125.96 227.157 125.96Z" fill="black"/>
<path d="M205.398 125.96C203.443 125.96 201.7 125.488 200.169 124.545C198.638 123.588 197.441 122.303 196.58 120.689C195.732 119.062 195.309 117.271 195.309 115.316C195.309 113.375 195.732 111.604 196.58 110.005C197.441 108.392 198.638 107.12 200.169 106.19C201.7 105.247 203.443 104.775 205.398 104.775C207.354 104.775 209.097 105.247 210.628 106.19C212.173 107.12 213.376 108.392 214.237 110.005C215.099 111.618 215.529 113.389 215.529 115.316C215.529 117.271 215.099 119.062 214.237 120.689C213.376 122.303 212.173 123.588 210.628 124.545C209.097 125.488 207.354 125.96 205.398 125.96ZM205.398 122.945C206.766 122.945 207.941 122.604 208.926 121.92C209.91 121.236 210.655 120.32 211.161 119.172C211.667 118.01 211.92 116.725 211.92 115.316C211.92 113.922 211.667 112.657 211.161 111.522C210.655 110.374 209.91 109.465 208.926 108.795C207.941 108.125 206.766 107.79 205.398 107.79C204.045 107.79 202.876 108.125 201.892 108.795C200.921 109.451 200.183 110.354 199.677 111.502C199.171 112.637 198.918 113.908 198.918 115.316C198.918 116.725 199.171 118.01 199.677 119.172C200.183 120.334 200.921 121.257 201.892 121.94C202.876 122.61 204.045 122.945 205.398 122.945Z" fill="black"/>
<path d="M173.734 96.6338H193.627V99.9561H177.344V109.41H191.679V112.753H177.344V125.611H173.734V96.6338Z" fill="black"/>
</svg>
